PathFileType	4	(X/Y/Z)	Walk6.trc
DataRate	CameraRate	NumFrames	NumMarkers	Units	OrigDataRate	OrigDataStartFrame	OrigNumFrames
200.000000	200.000000	4	59	mm	200.000000	839	1038
Frame#	Times		LFHD		RFHD		RCAR		RWRU		LACR1		RACR1		RUA1		RTH2		LLFC		RFA1		LMT5		RASI		LTH3		LUA1		LElbow		LMT1		LTB4		RTH4		LToe		RBHD		RLFC		LTB3		LTH4		LTH2		STRN		CLAV		LASI		RTH3		LTH1		LWRU		C7		LFA1		RBack		RMT1		RTH1		LBHD		RMT5		RCAL		LPSI		LCAR		RToe		RTB2		RLMAL		RPSI		RTB3		LWRR		RTB4		RTB1		LTB1		LLMAL		RMMAL		RElbow		RWRR		RElbowM		T10		LTB2		LMMAL		LCAL		LElbowM
			X1	Y1	Z1	X2	Y2	Z2	X3	Y3	Z3	X4	Y4	Z4	X5	Y5	Z5	X6	Y6	Z6	X7	Y7	Z7	X8	Y8	Z8	X9	Y9	Z9	X10	Y10	Z10	X11	Y11	Z11	X12	Y12	Z12	X13	Y13	Z13	X14	Y14	Z14	X15	Y15	Z15	X16	Y16	Z16	X17	Y17	Z17	X18	Y18	Z18	X19	Y19	Z19	X20	Y20	Z20	X21	Y21	Z21	X22	Y22	Z22	X23	Y23	Z23	X24	Y24	Z24	X25	Y25	Z25	X26	Y26	Z26	X27	Y27	Z27	X28	Y28	Z28	X29	Y29	Z29	X30	Y30	Z30	X31	Y31	Z31	X32	Y32	Z32	X33	Y33	Z33	X34	Y34	Z34	X35	Y35	Z35	X36	Y36	Z36	X37	Y37	Z37	X38	Y38	Z38	X39	Y39	Z39	X40	Y40	Z40	X41	Y41	Z41	X42	Y42	Z42	X43	Y43	Z43	X44	Y44	Z44	X45	Y45	Z45	X46	Y46	Z46	X47	Y47	Z47	X48	Y48	Z48	X49	Y49	Z49	X50	Y50	Z50	X51	Y51	Z51	X52	Y52	Z52	X53	Y53	Z53	X54	Y54	Z54	X55	Y55	Z55	X56	Y56	Z56	X57	Y57	Z57	X58	Y58	Z58	X59	Y59	Z59

839	4.195	76.564	1548	-44.794	76.661	1545.8	53.206	-102.79	748.27	307.6	-139.75	805.02	324.98	-40.521	1335.8	-184.57	-72.416	1347.2	173.47	-123.13	1205.1	256.32	83.932	637.68	175.14	-157.8	489.72	-172.38	-115.02	910.45	299.87	-265.59	24.021	-152.73	37.489	939.23	171.85	-105.87	551.37	-184.41	-4.7947	1196.8	-260.47	2.1458	1055.3	-312.12	-246.07	36.333	-65.627	-238.17	257.08	-84.452	28.023	622.93	191.93	-205.41	28.903	-64.844	-94.017	1550.3	61.373	71.296	453.76	163.17	-276.37	180.52	-91.345	-73.382	627.57	-212.27	-23.288	616.08	-180.87	81.636	1200.5	5.781	15.56	1314.7	-1.6912	29.809	947.59	-193.78	45.895	539.99	175.52	-37.394	700.58	-238.9	180	885.8	-319.45	-146.57	1389.8	-1.573	118.26	988.74	-298.73	-206.79	1284.7	89.178	269.41	43.327	71.032	20.516	704.64	213.35	-75.44	1540.8	-72.781	260.71	31.206	159.65	84.507	25.096	115.07	-205.43	953.77	-95.875	234.67	871.03	-298.31	310.01	47.365	75.73	135.95	277.79	152.2	134.82	64.772	157.83	-212.76	945.24	34.998	159.94	187.76	98.379	195.54	906.15	-248.76	150.17	271.91	91.87	149.76	358.56	84.579	-192.69	329.32	-76.06	-355.49	109.52	-152.58	151.77	73.8	72.463	-173.65	1042.6	286.78	-97.919	805.95	262.49	-200.66	1029.8	198.6	-191.35	1057.7	-18.262	-236.45	263.44	-146.59	-344.09	111.91	-68.08	-421.06	92.826	-111.84	-38.461	1003.1	-227.08
840	4.2	80.967	1548.7	-42.916	81.183	1546.7	55.086	-96.371	747.94	308.7	-133.56	804.5	326.01	-35.861	1336.8	-182.69	-67.479	1347.2	175.52	-117.76	1204.7	258.08	88.709	638.36	175.76	-151.89	489.86	-172.49	-109	910.04	301.08	-265.52	24.038	-152.65	42.845	939.49	172.8	-100.09	551.6	-184.36	-1.4819	1197.6	-259.19	5.1477	1056.1	-310.78	-245.77	36.352	-65.749	-234.29	257.7	-84.84	32.688	623.86	192.35	-205.53	28.895	-64.934	-89.483	1550.9	63.462	75.9	454.5	163.66	-273.47	181.63	-91.774	-67.859	627.97	-212.02	-17.741	616.59	-180.6	86.594	1201.3	7.7823	20.331	1315.3	0.3687	35.39	948.43	-192.6	50.339	540.75	176.08	-32.125	701.16	-238.5	183.13	886.54	-317.91	-141.83	1390.3	0.68089	121.41	989.56	-297.26	-201.88	1284.8	91.281	270	41.664	70.93	25.798	705.51	213.65	-71.072	1541.4	-70.71	261.32	30.155	160.09	84.779	25.568	115.16	-200.22	954.3	-95.109	237.83	871.85	-296.76	310.8	44.936	75.498	139.21	277.66	152.18	135.6	64.849	157.94	-207.52	945.89	35.803	161.74	187.42	98.191	198.68	907.04	-247.26	152.79	271.69	91.759	153.25	358.3	84.507	-188.1	329.44	-76.294	-353.54	111.65	-153	152.46	73.589	72.435	-167.78	1042.1	288.16	-91.654	805.61	263.58	-194.9	1029.3	200.02	-186.21	1058.2	-17.315	-232.57	264.14	-146.97	-341.89	113.95	-68.52	-419.12	96.249	-112	-35.069	1004.1	-225.41
841	4.205	85.394	1549.5	-41.03	85.727	1547.5	56.974	-89.913	747.7	309.81	-127.32	804.08	327.05	-31.161	1337.9	-180.8	-62.534	1347.2	177.56	-112.35	1204.4	259.83	93.416	639.12	176.41	-145.79	490.01	-172.67	-102.94	909.71	302.29	-265.42	24.073	-152.56	48.219	939.88	173.71	-94.157	551.85	-184.36	1.8113	1198.5	-257.9	8.0663	1056.9	-309.42	-245.47	36.37	-65.855	-230.2	258.34	-85.274	37.304	624.85	192.86	-205.66	28.88	-65.02	-84.925	1551.6	65.555	80.391	455.22	164.16	-270.37	182.8	-92.237	-62.215	628.44	-211.79	-12.077	617.17	-180.34	91.555	1202.1	9.8446	25.116	1316.1	2.4336	40.98	949.38	-191.38	54.754	541.58	176.69	-26.777	701.82	-238.09	186.09	887.25	-316.42	-137.07	1390.8	2.9192	124.46	990.38	-295.82	-196.94	1285	93.35	270.5	40.206	70.832	30.971	706.44	213.99	-66.681	1542	-68.632	261.85	29.302	160.5	85.015	25.98	115.23	-194.97	954.91	-94.404	240.81	872.59	-295.26	311.49	42.765	75.29	142.28	277.53	152.21	136.28	64.94	158.02	-202.3	946.64	36.557	163.41	187.12	98.012	201.67	907.87	-245.81	155.26	271.5	91.695	156.62	358.06	84.522	-183.3	329.58	-76.59	-351.43	113.88	-153.41	153.04	73.422	72.397	-161.87	1041.6	289.54	-85.346	805.37	264.68	-189.11	1029	201.44	-181.06	1058.8	-16.372	-228.52	264.87	-147.4	-339.5	116.06	-68.953	-416.96	99.834	-112.12	-31.712	1005.1	-223.68
842	4.21	89.845	1550.4	-39.139	90.292	1548.5	58.867	-83.417	747.57	310.93	-121.05	803.75	328.08	-26.427	1339.1	-178.9	-57.584	1347.4	179.57	-106.92	1204.2	261.56	98.054	639.93	177.07	-139.49	490.17	-172.92	-96.852	909.49	303.49	-265.3	24.134	-152.46	53.612	940.4	174.58	-88.059	552.14	-184.41	5.0935	1199.5	-256.61	10.908	1057.8	-308.04	-245.14	36.389	-65.943	-225.89	259.01	-85.758	41.874	625.87	193.44	-205.81	28.86	-65.102	-80.346	1552.4	67.65	84.744	455.92	164.66	-267.04	184	-92.734	-56.448	628.96	-211.57	-6.2902	617.84	-180.1	96.517	1203	11.964	29.915	1317	4.4994	46.566	950.42	-190.12	59.129	542.46	177.33	-21.352	702.56	-237.68	188.87	887.91	-314.98	-132.28	1391.5	5.1371	127.41	991.19	-294.4	-191.99	1285.2	95.376	270.91	38.947	70.739	36.038	707.41	214.38	-62.267	1542.7	-66.553	262.3	28.625	160.88	85.215	26.333	115.3	-189.69	955.62	-93.761	243.61	873.23	-293.83	312.08	40.85	75.104	145.14	277.39	152.27	136.87	65.038	158.08	-197.09	947.47	37.258	164.94	186.85	97.852	204.52	908.64	-244.41	157.59	271.32	91.683	159.85	357.83	84.626	-178.27	329.73	-76.96	-349.16	116.2	-153.8	153.51	73.292	72.352	-155.94	1041.3	290.9	-78.997	805.22	265.78	-183.3	1028.7	202.83	-175.91	1059.4	-15.433	-224.27	265.62	-147.89	-336.91	118.25	-69.38	-414.57	103.58	-112.2	-28.387	1006.2	-221.89
